<svg width="20" height="20" viewBox="0 0 20 20" fill="none" xmlns="http://www.w3.org/2000/svg">
<path d="M14.9993 0.00416134L12.4058 0C9.49208 0 7.60909 1.9319 7.60909 4.92203V7.19141H5.00142C4.77609 7.19141 4.59361 7.37409 4.59361 7.59943V10.8875C4.59361 11.1128 4.77629 11.2953 5.00142 11.2953H7.60909V19.5922C7.60909 19.8175 7.79157 20 8.0169 20H11.4192C11.6445 20 11.827 19.8173 11.827 19.5922V11.2953H14.876C15.1013 11.2953 15.2838 11.1128 15.2838 10.8875L15.285 7.59943C15.285 7.49123 15.2419 7.38762 15.1656 7.31105C15.0892 7.23448 14.9852 7.19141 14.877 7.19141H11.827V5.26763C11.827 4.34298 12.0473 3.87358 13.2518 3.87358L14.9989 3.87295C15.224 3.87295 15.4065 3.69027 15.4065 3.46514V0.411972C15.4065 0.187052 15.2243 0.00457747 14.9993 0.00416134Z" fill="#66C05D"/>
</svg>
